<?xml version="1.0" encoding="UTF-8" standalone="no"?>
<!-- Created with Inkscape (http://www.inkscape.org/) -->

<svg
   xmlns:dc="http://purl.org/dc/elements/1.1/"
   xmlns:cc="http://creativecommons.org/ns#"
   xmlns:rdf="http://www.w3.org/1999/02/22-rdf-syntax-ns#"
   xmlns:svg="http://www.w3.org/2000/svg"
   xmlns="http://www.w3.org/2000/svg"
   xmlns:sodipodi="http://sodipodi.sourceforge.net/DTD/sodipodi-0.dtd"
   xmlns:inkscape="http://www.inkscape.org/namespaces/inkscape"
   width="726.46411"
   height="360.49704"
   id="svg2"
   version="1.1"
   inkscape:version="0.48.4 r9939"
   sodipodi:docname="brandicon.svg"
   inkscape:export-filename="/home/felix/code/flxw.de/assets/img/brandicon.svg.png"
   inkscape:export-xdpi="90"
   inkscape:export-ydpi="90">
  <defs
     id="defs4" />
  <sodipodi:namedview
     id="base"
     pagecolor="#ffffff"
     bordercolor="#666666"
     borderopacity="1.0"
     inkscape:pageopacity="0.0"
     inkscape:pageshadow="2"
     inkscape:zoom="0.98994949"
     inkscape:cx="526.25915"
     inkscape:cy="191.23297"
     inkscape:document-units="px"
     inkscape:current-layer="layer2"
     showgrid="false"
     fit-margin-top="0"
     fit-margin-left="0"
     fit-margin-right="0"
     fit-margin-bottom="0"
     inkscape:window-width="1278"
     inkscape:window-height="1001"
     inkscape:window-x="0"
     inkscape:window-y="21"
     inkscape:window-maximized="0" />
  <metadata
     id="metadata7">
    <rdf:RDF>
      <cc:Work
         rdf:about="">
        <dc:format>image/svg+xml</dc:format>
        <dc:type
           rdf:resource="http://purl.org/dc/dcmitype/StillImage" />
        <dc:title></dc:title>
      </cc:Work>
    </rdf:RDF>
  </metadata>
  <g
     inkscape:groupmode="layer"
     id="layer3"
     inkscape:label="bglayer"
     style="display:inline"
     transform="translate(0,-691.86514)" />
  <g
     inkscape:groupmode="layer"
     id="layer2"
     inkscape:label="Layer"
     style="display:inline"
     transform="translate(0,-691.86514)">
    <path
       style="fill:#ffffff;stroke:#000000;stroke-width:0.69419414000000002;stroke-linecap:butt;stroke-linejoin:miter;stroke-miterlimit:4;stroke-opacity:1;stroke-dasharray:none;fill-opacity:1"
       d="M 0.34709707,731.61499 C 67.785391,730.66947 76.772768,727.69071 113.23734,722.08077 c 36.46459,-5.60993 81.34408,-14.37545 98.87512,-17.18042 17.53105,-2.80497 34.09595,-5.20986 50.1388,-7.01243 15.60263,-1.75311 43.77042,-3.50417 58.5537,-4.03214 14.72608,-0.52593 43.82762,-1.05186 59.25495,-1.05186 15.42731,0 30.85464,-1.05187 51.89192,-0.35063 21.03727,0.70125 50.84003,2.10373 68.371,3.50622 17.53107,1.40247 45.65684,4.7413 62.41061,6.48649 16.82975,1.7531 53.60371,6.62422 71.00079,9.64208 17.18036,2.98027 35.58758,5.08613 53.11902,8.5902 17.48659,3.49511 34.63414,8.04362 38.04242,10.86926 2.32911,1.93097 1.22705,100.45291 -2.45438,109.21843 -5.43467,9.81738 -15.67117,20.63912 -18.93351,25.42002 -5.40002,7.91352 -6.3112,13.3236 -8.41497,19.63477 -2.10367,6.31118 -13.84954,38.04239 -15.778,45.58071 -1.87175,7.31699 -19.45934,48.03511 -23.14086,54.171 -3.55337,5.92223 -8.94088,15.42733 -25.77072,29.45213 -16.82975,14.0249 -72.05253,24.1929 -78.18843,25.42 -5.87506,1.1751 -54.87217,6.6618 -75.90944,8.0643 -21.03728,1.4024 -66.44265,3.5062 -80.46751,3.5062 -14.02484,0 -53.48301,-2.1211 -73.80571,-3.3309 -22.07508,-1.3141 -48.56101,-3.5062 -63.28709,-5.61 -14.72608,-2.1036 -42.42514,-7.1876 -52.24252,-9.9926 -9.81739,-2.805 -32.95837,-7.1877 -51.19066,-24.7188 -18.2323,-17.53105 -28.05929,-30.00094 -41.16059,-51.65645 -7.75679,-12.8214 -23.695052,-44.1757 -33.008212,-66.49037 -9.19392,-22.02896 -17.85036,-47.72127 -30.31625,-63.65016 C 36.879747,808.74431 0.34709707,811.01089 0.34709707,811.01089 z"
       id="path3264"
       inkscape:connector-curvature="0"
       sodipodi:nodetypes="cssssssssssscssssssssssssssscc" />
    <path
       style="fill:#589ff1;stroke:#000000;stroke-width:0.68719655000000002;stroke-linecap:butt;stroke-linejoin:miter;stroke-miterlimit:4;stroke-opacity:1;stroke-dasharray:none;fill-opacity:1"
       d="m 118.40261,771.87424 c 26.405,-16.28118 62.8907,-18.94853 88.69298,-23.39135 45.49159,-7.83308 129.97528,-10.9461 145.24343,-11.71673 8.8907,-0.44874 66.38146,-0.0533 81.75122,0.60996 15.56888,0.6718 54.40361,2.5181 58.31056,2.77669 24.9459,1.65104 50.21081,4.76477 61.49396,6.28244 16.88895,2.27171 59.39371,10.82964 68.45718,14.13612 5.34989,1.95166 15.59306,5.32003 24.61131,16.05021 4.83102,5.74811 9.35386,23.85455 9.92175,33.08212 0.6208,10.08824 0.6687,30.11775 0.15399,39.15401 -1.18507,20.80477 -2.16334,41.34296 -4.74011,55.00214 -5.76972,30.58453 -10.63029,41.62316 -14.72534,52.62473 -2.67462,7.18576 -6.50457,17.20609 -18.52582,31.75649 -11.49783,13.91683 -18.79453,19.65053 -93.24733,29.35133 -23.97411,3.1236 -66.81549,8.5631 -122.67084,9.9646 -9.62175,0.2416 -100.68679,4.813 -189.88807,-19.1359 -68.33131,-18.3458 -75.82075,-69.93117 -93.61173,-116.24432 -11.34498,-29.53303 -22.213552,-58.31057 -18.04851,-84.68916 4.16503,-26.37858 16.82137,-35.61338 16.82137,-35.61338 z"
       id="path3262"
       inkscape:connector-curvature="0"
       sodipodi:nodetypes="csssssssssssssssssc" />
    <text
       xml:space="preserve"
       style="font-size:16.34656906px;font-style:normal;font-variant:normal;font-weight:normal;font-stretch:normal;line-height:125%;letter-spacing:0px;word-spacing:0px;fill:#000000;fill-opacity:1;stroke:none;font-family:Open Sans;-inkscape-font-specification:Open Sans"
       x="643.5827"
       y="770.04724"
       id="text3151"
       sodipodi:linespacing="125%"><tspan
         sodipodi:role="line"
         x="643.5827"
         y="770.04724"
         id="tspan3153"><tspan
           x="643.5827"
           y="770.04724"
           style="font-size:50.85599518px;font-family:Open Sans;-inkscape-font-specification:Open Sans"
           id="tspan3155">FW</tspan></tspan></text>
  </g>
</svg>
